<mxfile host="app.diagrams.net" modified="2021-09-23T08:15:26.233Z" agent="5.0 (Windows NT 10.0; Win64; x64) AppleWebKit/537.36 (KHTML, like Gecko) Chrome/93.0.4577.82 Safari/537.36" etag="AC0yodXmmsO9-lcX4WF3" version="15.3.0" type="github">
  <diagram name="Page-1" id="2ca16b54-16f6-2749-3443-fa8db7711227">
    <mxGraphModel dx="868" dy="482" grid="1" gridSize="10" guides="1" tooltips="1" connect="1" arrows="1" fold="1" page="1" pageScale="1" pageWidth="1100" pageHeight="850" math="0" shadow="0">
      <root>
        <mxCell id="0" />
        <mxCell id="1" parent="0" />
        <mxCell id="RciVubCdbuhJr-lN3B8K-10" value="" style="edgeStyle=orthogonalEdgeStyle;rounded=0;orthogonalLoop=1;jettySize=auto;html=1;strokeColor=#006658;fontColor=#5C5C5C;entryX=-0.029;entryY=-0.077;entryDx=0;entryDy=0;entryPerimeter=0;exitX=1;exitY=0.185;exitDx=0;exitDy=0;exitPerimeter=0;" edge="1" parent="1" source="RciVubCdbuhJr-lN3B8K-6" target="RciVubCdbuhJr-lN3B8K-2">
          <mxGeometry relative="1" as="geometry">
            <mxPoint x="210" y="60" as="sourcePoint" />
            <Array as="points">
              <mxPoint x="240" y="44" />
              <mxPoint x="240" y="44" />
            </Array>
          </mxGeometry>
        </mxCell>
        <mxCell id="2ed32ef02a7f4228-21" style="edgeStyle=orthogonalEdgeStyle;html=1;entryX=0.5;entryY=0;dashed=1;labelBackgroundColor=none;startArrow=ERmandOne;endArrow=ERoneToMany;fontFamily=Verdana;fontSize=12;align=left;strokeColor=#006658;fontColor=#5C5C5C;" parent="1" edge="1">
          <mxGeometry relative="1" as="geometry">
            <mxPoint x="920" y="450" as="sourcePoint" />
            <mxPoint x="920" y="490" as="targetPoint" />
          </mxGeometry>
        </mxCell>
        <mxCell id="RciVubCdbuhJr-lN3B8K-17" value="" style="edgeStyle=orthogonalEdgeStyle;rounded=0;orthogonalLoop=1;jettySize=auto;html=1;strokeColor=#006658;fontColor=#5C5C5C;" edge="1" parent="1" source="RciVubCdbuhJr-lN3B8K-1" target="RciVubCdbuhJr-lN3B8K-12">
          <mxGeometry relative="1" as="geometry">
            <Array as="points">
              <mxPoint x="690" y="40" />
              <mxPoint x="690" y="40" />
            </Array>
          </mxGeometry>
        </mxCell>
        <mxCell id="RciVubCdbuhJr-lN3B8K-1" value="Artikli" style="swimlane;fontStyle=0;childLayout=stackLayout;horizontal=1;startSize=26;horizontalStack=0;resizeParent=1;resizeParentMax=0;resizeLast=0;collapsible=1;marginBottom=0;fillColor=#21C0A5;strokeColor=#006658;fontColor=#5C5C5C;" vertex="1" parent="1">
          <mxGeometry x="400" y="20" width="140" height="156" as="geometry" />
        </mxCell>
        <mxCell id="RciVubCdbuhJr-lN3B8K-2" value="ID_artikla" style="text;strokeColor=none;fillColor=none;align=left;verticalAlign=top;spacingLeft=4;spacingRight=4;overflow=hidden;rotatable=0;points=[[0,0.5],[1,0.5]];portConstraint=eastwest;fontColor=#5C5C5C;" vertex="1" parent="RciVubCdbuhJr-lN3B8K-1">
          <mxGeometry y="26" width="140" height="26" as="geometry" />
        </mxCell>
        <mxCell id="RciVubCdbuhJr-lN3B8K-11" value="Sifra_artikla" style="text;strokeColor=none;fillColor=none;align=left;verticalAlign=top;spacingLeft=4;spacingRight=4;overflow=hidden;rotatable=0;points=[[0,0.5],[1,0.5]];portConstraint=eastwest;fontColor=#5C5C5C;" vertex="1" parent="RciVubCdbuhJr-lN3B8K-1">
          <mxGeometry y="52" width="140" height="26" as="geometry" />
        </mxCell>
        <mxCell id="RciVubCdbuhJr-lN3B8K-3" value="Slike" style="text;strokeColor=none;fillColor=none;align=left;verticalAlign=top;spacingLeft=4;spacingRight=4;overflow=hidden;rotatable=0;points=[[0,0.5],[1,0.5]];portConstraint=eastwest;fontColor=#5C5C5C;" vertex="1" parent="RciVubCdbuhJr-lN3B8K-1">
          <mxGeometry y="78" width="140" height="26" as="geometry" />
        </mxCell>
        <mxCell id="RciVubCdbuhJr-lN3B8K-4" value="Dimenzije" style="text;strokeColor=none;fillColor=none;align=left;verticalAlign=top;spacingLeft=4;spacingRight=4;overflow=hidden;rotatable=0;points=[[0,0.5],[1,0.5]];portConstraint=eastwest;fontColor=#5C5C5C;" vertex="1" parent="RciVubCdbuhJr-lN3B8K-1">
          <mxGeometry y="104" width="140" height="26" as="geometry" />
        </mxCell>
        <mxCell id="RciVubCdbuhJr-lN3B8K-18" value="Cijena" style="text;strokeColor=none;fillColor=none;align=left;verticalAlign=top;spacingLeft=4;spacingRight=4;overflow=hidden;rotatable=0;points=[[0,0.5],[1,0.5]];portConstraint=eastwest;fontColor=#5C5C5C;" vertex="1" parent="RciVubCdbuhJr-lN3B8K-1">
          <mxGeometry y="130" width="140" height="26" as="geometry" />
        </mxCell>
        <mxCell id="RciVubCdbuhJr-lN3B8K-6" value="Usluge" style="swimlane;fontStyle=0;childLayout=stackLayout;horizontal=1;startSize=26;horizontalStack=0;resizeParent=1;resizeParentMax=0;resizeLast=0;collapsible=1;marginBottom=0;fillColor=#21C0A5;strokeColor=#006658;fontColor=#5C5C5C;" vertex="1" parent="1">
          <mxGeometry x="60" y="20" width="140" height="156" as="geometry" />
        </mxCell>
        <mxCell id="RciVubCdbuhJr-lN3B8K-7" value="ID_usluge" style="text;strokeColor=none;fillColor=none;align=left;verticalAlign=top;spacingLeft=4;spacingRight=4;overflow=hidden;rotatable=0;points=[[0,0.5],[1,0.5]];portConstraint=eastwest;fontColor=#5C5C5C;" vertex="1" parent="RciVubCdbuhJr-lN3B8K-6">
          <mxGeometry y="26" width="140" height="26" as="geometry" />
        </mxCell>
        <mxCell id="RciVubCdbuhJr-lN3B8K-46" value="Naziv_usluge" style="text;strokeColor=none;fillColor=none;align=left;verticalAlign=top;spacingLeft=4;spacingRight=4;overflow=hidden;rotatable=0;points=[[0,0.5],[1,0.5]];portConstraint=eastwest;fontColor=#5C5C5C;" vertex="1" parent="RciVubCdbuhJr-lN3B8K-6">
          <mxGeometry y="52" width="140" height="26" as="geometry" />
        </mxCell>
        <mxCell id="RciVubCdbuhJr-lN3B8K-42" value="Ostalo" style="text;strokeColor=none;fillColor=none;align=left;verticalAlign=top;spacingLeft=4;spacingRight=4;overflow=hidden;rotatable=0;points=[[0,0.5],[1,0.5]];portConstraint=eastwest;fontColor=#5C5C5C;" vertex="1" parent="RciVubCdbuhJr-lN3B8K-6">
          <mxGeometry y="78" width="140" height="26" as="geometry" />
        </mxCell>
        <mxCell id="RciVubCdbuhJr-lN3B8K-8" value="ID_kupca" style="text;strokeColor=none;fillColor=none;align=left;verticalAlign=top;spacingLeft=4;spacingRight=4;overflow=hidden;rotatable=0;points=[[0,0.5],[1,0.5]];portConstraint=eastwest;fontColor=#5C5C5C;" vertex="1" parent="RciVubCdbuhJr-lN3B8K-6">
          <mxGeometry y="104" width="140" height="26" as="geometry" />
        </mxCell>
        <mxCell id="RciVubCdbuhJr-lN3B8K-9" value="ID_servisa" style="text;strokeColor=none;fillColor=none;align=left;verticalAlign=top;spacingLeft=4;spacingRight=4;overflow=hidden;rotatable=0;points=[[0,0.5],[1,0.5]];portConstraint=eastwest;fontColor=#5C5C5C;" vertex="1" parent="RciVubCdbuhJr-lN3B8K-6">
          <mxGeometry y="130" width="140" height="26" as="geometry" />
        </mxCell>
        <mxCell id="RciVubCdbuhJr-lN3B8K-12" value="Marketing" style="swimlane;fontStyle=0;childLayout=stackLayout;horizontal=1;startSize=26;horizontalStack=0;resizeParent=1;resizeParentMax=0;resizeLast=0;collapsible=1;marginBottom=0;fillColor=#21C0A5;strokeColor=#006658;fontColor=#5C5C5C;" vertex="1" parent="1">
          <mxGeometry x="710" y="20" width="140" height="130" as="geometry" />
        </mxCell>
        <mxCell id="RciVubCdbuhJr-lN3B8K-13" value="Promocija_proizvoda" style="text;strokeColor=none;fillColor=none;align=left;verticalAlign=top;spacingLeft=4;spacingRight=4;overflow=hidden;rotatable=0;points=[[0,0.5],[1,0.5]];portConstraint=eastwest;fontColor=#5C5C5C;" vertex="1" parent="RciVubCdbuhJr-lN3B8K-12">
          <mxGeometry y="26" width="140" height="26" as="geometry" />
        </mxCell>
        <mxCell id="RciVubCdbuhJr-lN3B8K-14" value="Istrazivanje_trzista" style="text;strokeColor=none;fillColor=none;align=left;verticalAlign=top;spacingLeft=4;spacingRight=4;overflow=hidden;rotatable=0;points=[[0,0.5],[1,0.5]];portConstraint=eastwest;fontColor=#5C5C5C;" vertex="1" parent="RciVubCdbuhJr-lN3B8K-12">
          <mxGeometry y="52" width="140" height="26" as="geometry" />
        </mxCell>
        <mxCell id="RciVubCdbuhJr-lN3B8K-15" value="Kreiranje_reklame" style="text;strokeColor=none;fillColor=none;align=left;verticalAlign=top;spacingLeft=4;spacingRight=4;overflow=hidden;rotatable=0;points=[[0,0.5],[1,0.5]];portConstraint=eastwest;fontColor=#5C5C5C;" vertex="1" parent="RciVubCdbuhJr-lN3B8K-12">
          <mxGeometry y="78" width="140" height="26" as="geometry" />
        </mxCell>
        <mxCell id="RciVubCdbuhJr-lN3B8K-16" value="Rad_sa_ciljanom_grupom" style="text;strokeColor=none;fillColor=none;align=left;verticalAlign=top;spacingLeft=4;spacingRight=4;overflow=hidden;rotatable=0;points=[[0,0.5],[1,0.5]];portConstraint=eastwest;fontColor=#5C5C5C;" vertex="1" parent="RciVubCdbuhJr-lN3B8K-12">
          <mxGeometry y="104" width="140" height="26" as="geometry" />
        </mxCell>
        <mxCell id="RciVubCdbuhJr-lN3B8K-19" style="edgeStyle=orthogonalEdgeStyle;rounded=0;orthogonalLoop=1;jettySize=auto;html=1;strokeColor=#006658;fontColor=#5C5C5C;" edge="1" parent="1" source="RciVubCdbuhJr-lN3B8K-8">
          <mxGeometry relative="1" as="geometry">
            <mxPoint x="330" y="210" as="targetPoint" />
          </mxGeometry>
        </mxCell>
        <mxCell id="RciVubCdbuhJr-lN3B8K-20" value="Kupac" style="swimlane;fontStyle=0;childLayout=stackLayout;horizontal=1;startSize=26;horizontalStack=0;resizeParent=1;resizeParentMax=0;resizeLast=0;collapsible=1;marginBottom=0;fillColor=#21C0A5;strokeColor=#006658;fontColor=#5C5C5C;" vertex="1" parent="1">
          <mxGeometry x="260" y="210" width="140" height="152" as="geometry" />
        </mxCell>
        <mxCell id="RciVubCdbuhJr-lN3B8K-45" value="ID_kupca" style="text;strokeColor=none;fillColor=none;align=left;verticalAlign=top;spacingLeft=4;spacingRight=4;overflow=hidden;rotatable=0;points=[[0,0.5],[1,0.5]];portConstraint=eastwest;fontColor=#5C5C5C;" vertex="1" parent="RciVubCdbuhJr-lN3B8K-20">
          <mxGeometry y="26" width="140" height="24" as="geometry" />
        </mxCell>
        <mxCell id="RciVubCdbuhJr-lN3B8K-21" value="Ime" style="text;strokeColor=none;fillColor=none;align=left;verticalAlign=top;spacingLeft=4;spacingRight=4;overflow=hidden;rotatable=0;points=[[0,0.5],[1,0.5]];portConstraint=eastwest;fontColor=#5C5C5C;" vertex="1" parent="RciVubCdbuhJr-lN3B8K-20">
          <mxGeometry y="50" width="140" height="24" as="geometry" />
        </mxCell>
        <mxCell id="RciVubCdbuhJr-lN3B8K-41" value="Prezime" style="text;strokeColor=none;fillColor=none;align=left;verticalAlign=top;spacingLeft=4;spacingRight=4;overflow=hidden;rotatable=0;points=[[0,0.5],[1,0.5]];portConstraint=eastwest;fontColor=#5C5C5C;" vertex="1" parent="RciVubCdbuhJr-lN3B8K-20">
          <mxGeometry y="74" width="140" height="26" as="geometry" />
        </mxCell>
        <mxCell id="RciVubCdbuhJr-lN3B8K-22" value="Broj_telefona" style="text;strokeColor=none;fillColor=none;align=left;verticalAlign=top;spacingLeft=4;spacingRight=4;overflow=hidden;rotatable=0;points=[[0,0.5],[1,0.5]];portConstraint=eastwest;fontColor=#5C5C5C;" vertex="1" parent="RciVubCdbuhJr-lN3B8K-20">
          <mxGeometry y="100" width="140" height="26" as="geometry" />
        </mxCell>
        <mxCell id="RciVubCdbuhJr-lN3B8K-23" value="id_lokacije&#xa;" style="text;strokeColor=none;fillColor=none;align=left;verticalAlign=top;spacingLeft=4;spacingRight=4;overflow=hidden;rotatable=0;points=[[0,0.5],[1,0.5]];portConstraint=eastwest;fontColor=#5C5C5C;" vertex="1" parent="RciVubCdbuhJr-lN3B8K-20">
          <mxGeometry y="126" width="140" height="26" as="geometry" />
        </mxCell>
        <mxCell id="RciVubCdbuhJr-lN3B8K-24" style="edgeStyle=orthogonalEdgeStyle;rounded=0;orthogonalLoop=1;jettySize=auto;html=1;strokeColor=#006658;fontColor=#5C5C5C;" edge="1" parent="1" source="RciVubCdbuhJr-lN3B8K-9">
          <mxGeometry relative="1" as="geometry">
            <mxPoint x="80" y="280" as="targetPoint" />
          </mxGeometry>
        </mxCell>
        <mxCell id="RciVubCdbuhJr-lN3B8K-25" value="Servis" style="swimlane;fontStyle=0;childLayout=stackLayout;horizontal=1;startSize=26;horizontalStack=0;resizeParent=1;resizeParentMax=0;resizeLast=0;collapsible=1;marginBottom=0;fillColor=#21C0A5;strokeColor=#006658;fontColor=#5C5C5C;" vertex="1" parent="1">
          <mxGeometry x="40" y="290" width="140" height="104" as="geometry" />
        </mxCell>
        <mxCell id="RciVubCdbuhJr-lN3B8K-47" value="ID_servisa" style="text;strokeColor=none;fillColor=none;align=left;verticalAlign=top;spacingLeft=4;spacingRight=4;overflow=hidden;rotatable=0;points=[[0,0.5],[1,0.5]];portConstraint=eastwest;fontColor=#5C5C5C;" vertex="1" parent="RciVubCdbuhJr-lN3B8K-25">
          <mxGeometry y="26" width="140" height="26" as="geometry" />
        </mxCell>
        <mxCell id="RciVubCdbuhJr-lN3B8K-51" value="Naziv_servisa" style="text;strokeColor=none;fillColor=none;align=left;verticalAlign=top;spacingLeft=4;spacingRight=4;overflow=hidden;rotatable=0;points=[[0,0.5],[1,0.5]];portConstraint=eastwest;fontColor=#5C5C5C;" vertex="1" parent="RciVubCdbuhJr-lN3B8K-25">
          <mxGeometry y="52" width="140" height="26" as="geometry" />
        </mxCell>
        <mxCell id="RciVubCdbuhJr-lN3B8K-50" value="Datum_servisiranja" style="text;strokeColor=none;fillColor=none;align=left;verticalAlign=top;spacingLeft=4;spacingRight=4;overflow=hidden;rotatable=0;points=[[0,0.5],[1,0.5]];portConstraint=eastwest;fontColor=#5C5C5C;" vertex="1" parent="RciVubCdbuhJr-lN3B8K-25">
          <mxGeometry y="78" width="140" height="26" as="geometry" />
        </mxCell>
        <mxCell id="RciVubCdbuhJr-lN3B8K-32" style="edgeStyle=orthogonalEdgeStyle;rounded=0;orthogonalLoop=1;jettySize=auto;html=1;entryX=0.5;entryY=0;entryDx=0;entryDy=0;strokeColor=#006658;fontColor=#5C5C5C;" edge="1" parent="1" source="RciVubCdbuhJr-lN3B8K-23" target="RciVubCdbuhJr-lN3B8K-33">
          <mxGeometry relative="1" as="geometry">
            <mxPoint x="470" y="360" as="targetPoint" />
          </mxGeometry>
        </mxCell>
        <mxCell id="RciVubCdbuhJr-lN3B8K-33" value="Lokacija" style="swimlane;fontStyle=0;childLayout=stackLayout;horizontal=1;startSize=26;horizontalStack=0;resizeParent=1;resizeParentMax=0;resizeLast=0;collapsible=1;marginBottom=0;fillColor=#21C0A5;strokeColor=#006658;fontColor=#5C5C5C;" vertex="1" parent="1">
          <mxGeometry x="400" y="400" width="140" height="78" as="geometry" />
        </mxCell>
        <mxCell id="RciVubCdbuhJr-lN3B8K-34" value="ID_lokacije" style="text;strokeColor=none;fillColor=none;align=left;verticalAlign=top;spacingLeft=4;spacingRight=4;overflow=hidden;rotatable=0;points=[[0,0.5],[1,0.5]];portConstraint=eastwest;fontColor=#5C5C5C;" vertex="1" parent="RciVubCdbuhJr-lN3B8K-33">
          <mxGeometry y="26" width="140" height="26" as="geometry" />
        </mxCell>
        <mxCell id="RciVubCdbuhJr-lN3B8K-35" value="Mjesto" style="text;strokeColor=none;fillColor=none;align=left;verticalAlign=top;spacingLeft=4;spacingRight=4;overflow=hidden;rotatable=0;points=[[0,0.5],[1,0.5]];portConstraint=eastwest;fontColor=#5C5C5C;" vertex="1" parent="RciVubCdbuhJr-lN3B8K-33">
          <mxGeometry y="52" width="140" height="26" as="geometry" />
        </mxCell>
        <mxCell id="RciVubCdbuhJr-lN3B8K-37" value="Osoblje" style="swimlane;fontStyle=0;childLayout=stackLayout;horizontal=1;startSize=26;horizontalStack=0;resizeParent=1;resizeParentMax=0;resizeLast=0;collapsible=1;marginBottom=0;rounded=0;sketch=0;fontColor=#5C5C5C;strokeColor=#006658;fillColor=#21C0A5;" vertex="1" parent="1">
          <mxGeometry x="710" y="240" width="140" height="104" as="geometry" />
        </mxCell>
        <mxCell id="RciVubCdbuhJr-lN3B8K-38" value="ID_osoblja" style="text;strokeColor=none;fillColor=none;align=left;verticalAlign=top;spacingLeft=4;spacingRight=4;overflow=hidden;rotatable=0;points=[[0,0.5],[1,0.5]];portConstraint=eastwest;" vertex="1" parent="RciVubCdbuhJr-lN3B8K-37">
          <mxGeometry y="26" width="140" height="26" as="geometry" />
        </mxCell>
        <mxCell id="RciVubCdbuhJr-lN3B8K-39" value="Ime" style="text;strokeColor=none;fillColor=none;align=left;verticalAlign=top;spacingLeft=4;spacingRight=4;overflow=hidden;rotatable=0;points=[[0,0.5],[1,0.5]];portConstraint=eastwest;" vertex="1" parent="RciVubCdbuhJr-lN3B8K-37">
          <mxGeometry y="52" width="140" height="26" as="geometry" />
        </mxCell>
        <mxCell id="RciVubCdbuhJr-lN3B8K-40" value="Prezime" style="text;strokeColor=none;fillColor=none;align=left;verticalAlign=top;spacingLeft=4;spacingRight=4;overflow=hidden;rotatable=0;points=[[0,0.5],[1,0.5]];portConstraint=eastwest;" vertex="1" parent="RciVubCdbuhJr-lN3B8K-37">
          <mxGeometry y="78" width="140" height="26" as="geometry" />
        </mxCell>
      </root>
    </mxGraphModel>
  </diagram>
</mxfile>
